<svg width="168" height="110" viewBox="0 0 168 110" fill="none" xmlns="http://www.w3.org/2000/svg">
<path d="M55.0973 49.5005C51.981 52.9135 45.4813 57.6919 44.4128 49.5005C43.0773 39.2612 46.1936 35.2546 53.3165 39.7064C59.0149 43.2679 61.3302 49.7976 61.7756 52.6173" stroke="black" stroke-width="1.92675"/>
<path d="M109.291 111.248C96.8158 113.925 93.7403 107.186 93.6533 98.9686C93.6509 98.7423 93.7704 98.5317 93.9647 98.4158L104.304 92.2524C104.655 92.0432 105.109 92.2111 105.246 92.5956C106.572 96.2942 107.921 97.9731 115.254 97.4873C121.502 97.0732 122.478 100.883 122.556 102.873C122.556 104.736 121.95 108.531 109.291 111.248Z" fill="#FFBFFB"/>
<path d="M93.6513 98.6026C93.6513 106.984 96.6311 113.965 109.291 111.248C121.95 108.531 122.556 104.736 122.556 102.873C122.478 100.883 121.502 97.0732 115.254 97.4873C107.443 98.0048 106.421 96.066 104.986 91.8462" stroke="black" stroke-width="1.92675"/>
<path d="M11.6689 122.919C14.2263 125.724 18.2115 125.245 20.4278 122.919M20.4278 122.919C14.823 119.178 13.0968 109.167 17.3377 108.791C21.3135 108.791 24.1786 119.315 20.4278 122.919ZM20.4278 122.919C22.9852 125.724 26.9704 125.245 29.1867 122.919M29.1867 122.919C23.5819 119.178 21.8557 109.167 26.0966 108.791C30.0724 108.791 32.9375 119.315 29.1867 122.919Z" stroke="black" stroke-width="1.92675" stroke-linecap="round"/>
<path d="M99.5323 134.987C79.6215 146.763 53.7072 140.704 36.5738 133.155C29.9185 130.223 26.3374 123.214 26.7595 115.953L28.6529 83.3874C28.6529 59.1386 44.1308 45.2085 70.4433 45.2085C95.724 45.2085 106.559 63.782 106.559 74.1007V121.09C106.559 126.648 104.316 132.158 99.5323 134.987Z" fill="#FFBFFB" stroke="black" stroke-width="1.92675"/>
<circle opacity="0.4" cx="61.291" cy="85.958" r="9.8027" fill="#E7AAD4"/>
<path opacity="0.4" d="M107.176 85.442C107.176 90.8559 105.883 95.7607 100.469 95.7607C95.0548 95.7607 90.666 91.3719 90.666 85.958C90.666 80.5441 95.0548 76.1553 100.469 76.1553C105.883 76.1553 107.176 80.0282 107.176 85.442Z" fill="#E7AAD4"/>
<path d="M36.997 52.9862C34.4183 57.0889 28.9338 63.7227 27.6253 57.4364C25.9897 49.5785 23.0919 47.1827 26.8535 44.6001C30.6151 42.0175 39.7739 44.7102 42.3756 53.3669" stroke="black" stroke-width="1.92675"/>
<path d="M44.443 68.678C31.9681 66.0004 28.8927 72.7399 28.8056 80.9572C28.8032 81.1834 28.9227 81.3941 29.1171 81.51L39.4567 87.6734C39.8076 87.8826 40.2609 87.7147 40.3988 87.3302C41.7243 83.6316 43.0735 81.9526 50.4059 82.4385C56.6545 82.8526 57.6301 79.0429 57.7088 77.0525C57.7088 75.1894 57.1026 71.3952 44.443 68.678Z" fill="#FFBFFB"/>
<path d="M28.7832 81.3231C28.7832 72.9415 31.7629 65.9607 44.4225 68.678C57.0821 71.3952 57.6883 75.1894 57.6883 77.0525C57.6096 79.0429 56.634 82.8526 50.3854 82.4385C42.5747 81.9209 41.5533 83.8598 40.1175 88.0796" stroke="black" stroke-width="1.92675"/>
<circle cx="73.9678" cy="73.5867" r="3.85351" fill="black"/>
<circle cx="102.869" cy="73.5867" r="3.85351" fill="black"/>
<circle cx="75.895" cy="73.5874" r="1.28462" fill="white"/>
<circle cx="104.796" cy="73.5874" r="1.28462" fill="white"/>
<path d="M89.0858 81.8061C88.9449 84.0205 88.3588 85.7647 87.1793 85.6376C85.9998 85.5106 85.6421 83.6646 85.783 81.4502C85.9239 79.2358 86.5099 77.4915 87.6895 77.6186C88.869 77.7457 89.2267 79.5917 89.0858 81.8061Z" fill="black"/>
<path d="M93.4014 81.7542C93.3013 83.3273 92.885 84.5664 92.047 84.4761C91.2091 84.3858 90.955 83.0745 91.0551 81.5014C91.1552 79.9283 91.5715 78.6892 92.4095 78.7795C93.2474 78.8698 93.5014 80.1811 93.4014 81.7542Z" fill="black"/>
<path d="M97.4102 80.9727C97.4102 85.1362 93.6258 88.6797 88.7393 88.6797C83.8528 88.6797 80.0693 85.1361 80.0693 80.9727C80.0696 76.8094 83.8529 73.2656 88.7393 73.2656C93.6256 73.2656 97.4099 76.8094 97.4102 80.9727Z" stroke="black" stroke-width="1.92675"/>
<path fill-rule="evenodd" clip-rule="evenodd" d="M159.28 82.5889L136.009 93.6746L133.879 88.0622L159.28 82.5889Z" fill="white"/>
<path d="M159.28 82.5889L136.009 93.6746L133.879 88.0622L159.28 82.5889Z" stroke="white" stroke-width="0.642251" stroke-linecap="round" stroke-linejoin="round"/>
<path fill-rule="evenodd" clip-rule="evenodd" d="M154.27 84.8281L136.492 89.4521L136.153 93.6659L154.27 84.8281Z" fill="#FFBFFB"/>
<path d="M154.27 84.8281L136.492 89.4521L136.153 93.6659L154.27 84.8281Z" stroke="white" stroke-width="0.642251" stroke-linecap="round" stroke-linejoin="round"/>
<path fill-rule="evenodd" clip-rule="evenodd" d="M144.472 93.7972L136.554 89.7168L163.728 81.6719L144.472 93.7972Z" fill="#FFBFFB"/>
<path d="M144.472 93.7972L136.554 89.7168L163.728 81.6719L144.472 93.7972Z" stroke="#FFBFFB" stroke-width="0.642251" stroke-linecap="round" stroke-linejoin="round"/>
<path fill-rule="evenodd" clip-rule="evenodd" d="M133.951 88.0107L125.926 84.3162L163.728 81.6719L133.951 88.0107Z" fill="#FFBFFB"/>
<path d="M133.951 88.0107L125.926 84.3162L163.728 81.6719L133.951 88.0107Z" stroke="#FFBFFB" stroke-width="0.642251" stroke-linecap="round" stroke-linejoin="round"/>
</svg>
