<svg width="57" height="52" viewBox="0 0 57 52" fill="none" xmlns="http://www.w3.org/2000/svg">
<g id="Frame 1117">
<path id="Ellipse 129" d="M44.262 31.894C38.4038 31.894 33.6549 36.0098 33.6549 41.0869C33.6549 46.164 38.4038 50.2798 44.262 50.2798C46.4281 50.2798 48.4426 49.717 50.1214 48.7511C52.9828 47.1046 54.8691 44.2867 54.8691 41.0869" stroke="#FFBFFB" stroke-width="2.35707" stroke-linecap="round"/>
<path id="Ellipse 126" d="M43.7804 41.3317C43.6315 43.1299 43.0122 44.5464 41.7656 44.4431C40.5191 44.3399 40.1411 42.8409 40.29 41.0428C40.4389 39.2446 41.0582 37.8282 42.3048 37.9314C43.5513 38.0346 43.9293 39.5336 43.7804 41.3317Z" fill="#FFBFFB"/>
<path id="Ellipse 127" d="M48.3408 41.2902C48.235 42.5676 47.795 43.5738 46.9095 43.5005C46.024 43.4272 45.7555 42.3623 45.8612 41.0849C45.967 39.8075 46.407 38.8013 47.2925 38.8746C48.178 38.9479 48.4465 40.0128 48.3408 41.2902Z" fill="#FFBFFB"/>
<path id="Vector 220" d="M2.09869 3.64917C1.41888 4.96413 0.351745 10.7969 3.70655 12.3345C7.06135 13.8722 12.0461 3.34107 8.6155 1.84403C4.86957 0.20938 2.37025 12.8052 7.50033 14.8843C7.97035 15.0998 8.47239 15.0783 8.97876 14.8779M8.97876 14.8779C12.0867 13.6484 15.3593 5.6811 12.4093 4.3938C9.46939 3.11086 7.29732 10.5935 8.97876 14.8779ZM8.97876 14.8779C9.43974 16.0525 10.1903 16.9868 11.2942 17.4341" stroke="#FFBFFB" stroke-width="2.35707" stroke-linecap="round"/>
<path id="Ellipse 128" d="M31.2142 50.2796C18.1683 50.2796 7.59254 41.0258 7.59254 29.6106C7.59254 18.1955 18.1683 8.94165 31.2142 8.94165C36.0381 8.94165 40.5242 10.2068 44.2628 12.3787C50.6352 16.0805 54.8359 22.4163 54.8359 29.6106" stroke="#FFBFFB" stroke-width="2.35707" stroke-linecap="round"/>
</g>
</svg>
