<svg width="24" height="24" viewBox="0 0 24 24" fill="none" xmlns="http://www.w3.org/2000/svg">
<g id="Frame 1288">
<path id="&#208;&#159;&#209;&#143;&#209;&#130;&#208;&#176;&#209;&#135;&#208;&#190;&#208;&#186;" fill-rule="evenodd" clip-rule="evenodd" d="M11.8571 20C6.80768 20 2.71429 16.4183 2.71429 12C2.71429 7.58172 6.80768 4 11.8571 4C16.9066 4 21 7.58172 21 12C21 16.4183 16.9066 20 11.8571 20ZM11.8211 12.3409C11.6868 13.9635 11.1279 15.2415 10.0032 15.1484C8.87839 15.0553 8.53734 13.7027 8.67168 12.0802C8.80601 10.4577 9.36487 9.17959 10.4896 9.27271C11.6144 9.36584 11.9555 10.7184 11.8211 12.3409ZM14.6446 14.2107C15.4436 14.2769 15.8406 13.369 15.9361 12.2163C16.0315 11.0637 15.7892 10.1029 14.9902 10.0367C14.1912 9.97056 13.7942 10.8785 13.6987 12.0311C13.6033 13.1837 13.8456 14.1446 14.6446 14.2107Z" fill="#D874B9"/>
</g>
</svg>
