<svg width="24" height="24" viewBox="0 0 24 24" fill="none" xmlns="http://www.w3.org/2000/svg">
<g id="people-nearby-svgrepo-com 1">
<path id="Vector" fill-rule="evenodd" clip-rule="evenodd" d="M9.47949 4.66683C9.47949 3.27461 10.6081 2.146 12.0003 2.146C13.3926 2.146 14.5212 3.27461 14.5212 4.66683C14.5212 6.05904 13.3926 7.18766 12.0003 7.18766C10.6081 7.18766 9.47949 6.05904 9.47949 4.66683Z" fill="#D874B9"/>
<path id="Vector_2" d="M8.53751 11.6095L6.54348 10.9448C5.9699 10.7536 5.58301 10.2168 5.58301 9.61224C5.58301 8.71797 6.40758 8.05137 7.282 8.23876L9.02144 8.61149C9.11817 8.63222 9.16653 8.64258 9.21448 8.65249C11.0518 9.03254 12.9475 9.03254 14.7849 8.65249C14.8328 8.64258 14.8812 8.63222 14.9779 8.61149L16.7173 8.23875C17.5918 8.05137 18.4163 8.71797 18.4163 9.61224C18.4163 10.2168 18.0294 10.7536 17.4559 10.9448L15.4618 11.6095C15.2208 11.6898 15.1004 11.73 15.0097 11.786C14.7012 11.9764 14.5339 12.3308 14.583 12.6902C14.5975 12.7957 14.6431 12.9142 14.7343 13.1513L15.8772 16.1228C16.2173 17.0073 15.5644 17.958 14.6167 17.958C14.1321 17.958 13.6846 17.6984 13.4442 17.2775L11.9997 14.7496L10.5552 17.2775C10.3147 17.6984 9.86726 17.958 9.38265 17.958C8.43492 17.958 7.78199 17.0073 8.1222 16.1228L9.26509 13.1513C9.35627 12.9142 9.40187 12.7957 9.4163 12.6902C9.46542 12.3308 9.29814 11.9764 8.98957 11.786C8.89897 11.73 8.77848 11.6898 8.53751 11.6095Z" fill="#D874B9"/>
<path id="Vector_3" d="M11.9997 21.1666C17.0622 21.1666 21.1663 19.3198 21.1663 17.0416C21.1663 15.4633 19.1963 14.092 16.3025 13.3984L17.1605 15.6292C17.8471 17.4144 16.5294 19.3331 14.6167 19.3331C13.6387 19.3331 12.7356 18.8091 12.2504 17.9599L11.9997 17.5211L11.749 17.9599C11.2638 18.8091 10.3607 19.3331 9.38265 19.3331C7.46997 19.3331 6.15225 17.4144 6.83885 15.6292L7.69687 13.3984C4.80299 14.092 2.83301 15.4633 2.83301 17.0416C2.83301 19.3198 6.93706 21.1666 11.9997 21.1666Z" fill="#D874B9"/>
</g>
</svg>
