<svg width="176" height="180" viewBox="0 0 176 180" fill="none" xmlns="http://www.w3.org/2000/svg">
<g id="Frame 1151">
<path id="&#208;&#160;&#209;&#131;&#208;&#186;&#208;&#176; 1 &#208;&#177;&#208;&#190;&#209;&#128;&#208;&#180;&#208;&#181;&#209;&#128;" d="M152.999 127.325C133.575 131.494 128.786 121 128.651 108.206C128.647 107.853 128.833 107.525 129.136 107.345L145.235 97.7484C145.781 97.4227 146.487 97.6841 146.702 98.2828C148.766 104.042 150.866 106.656 162.283 105.899C172.012 105.255 173.531 111.186 173.654 114.285C173.654 117.186 172.71 123.094 152.999 127.325Z" fill="#FFBFFB"/>
<path id="&#208;&#160;&#209;&#131;&#208;&#186;&#208;&#176; 1 &#208;&#177;&#208;&#190;&#209;&#128;&#208;&#180;&#208;&#181;&#209;&#128;_2" d="M128.648 107.636C128.648 120.686 133.287 131.556 152.999 127.325C172.71 123.094 173.654 117.186 173.654 114.285C173.531 111.186 172.012 105.255 162.283 105.899C150.122 106.705 148.531 103.686 146.296 97.116" stroke="black" stroke-width="3"/>
<path id="&#208;&#165;&#208;&#178;&#208;&#190;&#209;&#129;&#209;&#130;" d="M0 131.498C3.98184 135.866 10.1869 135.12 13.6378 131.498M13.6378 131.498C4.91094 125.674 2.2232 110.086 8.82642 109.501C15.0168 109.501 19.4778 125.887 13.6378 131.498ZM13.6378 131.498C17.6197 135.866 23.8247 135.12 27.2756 131.498M27.2756 131.498C18.5488 125.674 15.861 110.086 22.4642 109.501C28.6546 109.501 33.1157 125.887 27.2756 131.498Z" stroke="black" stroke-width="3" stroke-linecap="round"/>
<path id="&#208;&#157;&#208;&#190;&#208;&#179;&#208;&#176; 2" d="M121.568 180C133.778 180 135.224 161.792 134.421 152.687C133.77 136.08 109.807 131.395 109.428 155.747C109.393 157.972 109.291 160.219 109.208 162.443C108.934 169.751 111.092 180 121.568 180Z" fill="#FFBFFB" stroke="black" stroke-width="3"/>
<path id="&#208;&#157;&#208;&#190;&#208;&#179;&#208;&#176; 1" d="M56.0403 179.663C68.2508 179.663 69.6967 161.455 68.8934 152.35C68.2425 135.743 44.2799 131.058 43.9006 155.41C43.866 157.635 43.7641 159.882 43.6806 162.106C43.4062 169.414 45.5647 179.663 56.0403 179.663Z" fill="#FFBFFB" stroke="black" stroke-width="3"/>
<path id="Vector 47" d="M136.804 150.289C105.803 168.623 65.4535 159.189 38.7763 147.436C28.4139 142.87 22.8381 131.957 23.4953 120.652L26.4433 69.9462C26.4433 32.1903 50.5429 10.5007 91.5121 10.5007C130.875 10.5007 147.744 39.4201 147.744 55.4865V128.65C147.744 137.303 144.253 145.884 136.804 150.289Z" fill="#FFBFFB" stroke="black" stroke-width="3"/>
<path id="&#208;&#159;&#209;&#143;&#209;&#130;&#208;&#176;&#209;&#135;&#208;&#190;&#208;&#186;" d="M120.929 64.6863C120.929 73.0648 113.096 80.1863 103 80.1863C92.904 80.1862 85.0713 73.0648 85.0713 64.6863C85.0713 56.3078 92.904 49.1863 103 49.1863C113.096 49.1863 120.929 56.3077 120.929 64.6863Z" fill="#FFBFFB" stroke="black" stroke-width="3"/>
<path id="&#208;&#157;&#208;&#190;&#208;&#183;&#208;&#180;&#209;&#128;&#209;&#143; 1" d="M102.924 65.411C102.638 68.8589 101.451 71.5748 99.0606 71.3769C96.6704 71.179 95.9457 68.3048 96.2312 64.8569C96.5166 61.4091 97.7042 58.6932 100.094 58.8911C102.484 59.089 103.209 61.9632 102.924 65.411Z" fill="black"/>
<path id="&#208;&#157;&#208;&#190;&#208;&#183;&#208;&#180;&#209;&#128;&#209;&#143; 2" d="M111.668 65.1459C111.466 67.5952 110.622 69.5246 108.924 69.384C107.226 69.2434 106.711 67.2016 106.914 64.7523C107.117 62.303 107.96 60.3736 109.658 60.5142C111.356 60.6548 111.871 62.6966 111.668 65.1459Z" fill="black"/>
<circle id="&#208;&#160;&#209;&#131;&#208;&#188;&#209;&#143;&#208;&#189;&#209;&#139; 1" opacity="0.4" cx="58.5765" cy="63.5196" r="15.263" fill="#E7AAD4"/>
<path id="&#208;&#160;&#209;&#131;&#208;&#188;&#209;&#143;&#208;&#189;&#209;&#139; 2" opacity="0.4" d="M147.744 64.3228C147.744 72.7523 145.731 80.3891 137.301 80.3891C128.872 80.3891 122.038 73.5556 122.038 65.1261C122.038 56.6965 128.872 49.863 137.301 49.863C145.731 49.863 147.744 55.8932 147.744 64.3228Z" fill="#E7AAD4"/>
<path id="&#208;&#163;&#209;&#133;&#208;&#190; 1" d="M36.0086 22.3726C32.8049 28.8162 25.1209 38.7524 20.014 26.9474C13.6305 12.1912 16.58 4.85892 29.1492 8.4734C39.2045 11.365 45.4665 20.1486 47.3405 24.1789" stroke="black" stroke-width="3"/>
<path id="&#208;&#163;&#209;&#133;&#208;&#190; 2" d="M136.347 20.6119C140.362 26.9999 148.901 37.3289 150.939 27.5409C153.485 15.3059 157.997 11.5758 152.14 7.55459C146.284 3.53341 132.023 7.72603 127.972 21.2046" stroke="black" stroke-width="3"/>
<path id="&#208;&#160;&#209;&#131;&#208;&#186;&#208;&#176; 1 &#208;&#177;&#208;&#190;&#209;&#128;&#208;&#180;&#208;&#181;&#209;&#128;_3" d="M75.9987 127.325C56.575 131.494 51.7864 121 51.6508 108.206C51.6471 107.853 51.8332 107.525 52.1358 107.345L68.2348 97.7484C68.7811 97.4227 69.4871 97.6841 69.7017 98.2828C71.7656 104.042 73.8663 106.656 85.2831 105.899C95.0122 105.255 96.5312 111.186 96.6538 114.285C96.6538 117.186 95.71 123.094 75.9987 127.325Z" fill="#FFBFFB"/>
<path id="&#208;&#160;&#209;&#131;&#208;&#186;&#208;&#176; 1 &#208;&#177;&#208;&#190;&#209;&#128;&#208;&#180;&#208;&#181;&#209;&#128;_4" d="M51.6166 107.636C51.6166 120.686 56.2561 131.556 75.9675 127.325C95.6788 123.094 96.6225 117.186 96.6225 114.285C96.5 111.186 94.981 105.255 85.2518 105.899C73.0904 106.705 71.5 103.686 69.2645 97.116" stroke="black" stroke-width="3"/>
<circle id="&#208;&#147;&#208;&#187;&#208;&#176;&#208;&#183; 1 &#209;&#135;&#208;&#181;&#209;&#128;&#208;&#189;&#209;&#139;&#208;&#185;" cx="75" cy="54.6863" r="6" fill="black"/>
<circle id="&#208;&#147;&#208;&#187;&#208;&#176;&#208;&#183; 2 &#209;&#135;&#208;&#181;&#209;&#128;&#208;&#189;&#209;&#139;&#208;&#185;" cx="131" cy="54.6863" r="6" fill="black"/>
<circle id="&#208;&#147;&#208;&#187;&#208;&#176;&#208;&#183; 1 &#208;&#177;&#208;&#181;&#208;&#187;&#209;&#139;&#208;&#185;" cx="75" cy="52.6863" r="2" fill="white"/>
<circle id="&#208;&#147;&#208;&#187;&#208;&#176;&#208;&#183; 2 &#208;&#177;&#208;&#181;&#208;&#187;&#209;&#139;&#208;&#185;" cx="131" cy="52.6863" r="2" fill="white"/>
</g>
</svg>
