<svg width="199" height="222" viewBox="0 0 199 222" fill="none" xmlns="http://www.w3.org/2000/svg">
<ellipse cx="99.5" cy="193" rx="99.5" ry="12" fill="#212121"/>
<path d="M35.166 193.701C31.2632 179.136 52.5215 171.591 63.6385 169.639C83.8332 165.068 97.1386 192.675 67.2015 200.644C65.0511 201.216 62.9216 201.895 60.809 202.594C52.1965 205.444 38.6127 206.564 35.166 193.701Z" fill="#FFBFFB" stroke="black" stroke-width="3"/>
<path d="M168.043 191.701C171.946 177.136 150.687 169.591 139.57 167.639C119.376 163.068 106.07 190.675 136.007 198.644C138.158 199.216 140.287 199.895 142.4 200.594C151.012 203.444 164.596 204.564 168.043 191.701Z" fill="#FFBFFB" stroke="black" stroke-width="3"/>
<path d="M187 184.998C183.018 189.365 176.813 188.619 173.362 184.998M173.362 184.998C182.089 179.174 184.777 163.585 178.174 163C171.983 163 167.522 179.387 173.362 184.998ZM173.362 184.998C169.38 189.365 163.175 188.619 159.724 184.997M159.724 184.997C168.451 179.174 171.139 163.585 164.536 163C158.345 163 153.884 179.387 159.724 184.997Z" stroke="#FFBFFB" stroke-width="3" stroke-linecap="round"/>
<path d="M152.682 189.195C122.542 208.914 81.8075 201.316 54.6256 190.783C44.0672 186.691 38.003 176.041 38.1478 164.719L38.7973 113.931C37.0881 76.214 60.181 53.4557 101.108 51.601C140.43 49.8191 158.592 77.9451 159.319 93.995L162.631 167.083C163.023 175.728 159.924 184.457 152.682 189.195Z" fill="#FFBFFB" stroke="black" stroke-width="3"/>
<path d="M67.4363 64.9256C63.4212 71.3136 54.8818 81.6426 52.8444 71.8546C50.2977 59.6197 45.7859 55.8895 51.6427 51.8683C57.4996 47.8471 71.76 52.0397 75.8109 65.5183" stroke="black" stroke-width="3"/>
<path d="M62.9987 172.638C43.575 176.808 38.7864 166.314 38.6508 153.519C38.6471 153.167 38.8332 152.839 39.1358 152.659L55.2348 143.062C55.7811 142.736 56.4871 142.998 56.7017 143.597C58.7656 149.355 60.8663 151.969 72.2831 151.213C82.0122 150.568 83.5312 156.5 83.6538 159.599C83.6538 162.5 82.71 168.408 62.9987 172.638Z" fill="#FFBFFB"/>
<path d="M38.6478 152.95C38.6478 166 43.2874 176.869 62.9987 172.638C82.71 168.408 83.6538 162.5 83.6538 159.599C83.5312 156.5 82.0122 150.568 72.2831 151.213C60.1216 152.019 58.5313 149 56.2957 142.43" stroke="black" stroke-width="3"/>
<rect width="45.5271" height="27.4169" transform="matrix(-1 0 0 1 125.581 145.037)" fill="black"/>
<ellipse cx="22.7636" cy="6.16251" rx="22.7636" ry="6.16251" transform="matrix(-1 0 0 1 125.581 139)" fill="black"/>
<ellipse cx="19.7452" cy="3.6472" rx="19.7452" ry="3.6472" transform="matrix(-1 0 0 1 122.562 141.516)" fill="white"/>
<ellipse cx="22.7636" cy="5.40792" rx="22.7636" ry="5.40792" transform="matrix(-1 0 0 1 125.581 166.92)" fill="black"/>
<ellipse opacity="0.5" cx="19.4937" cy="5.40792" rx="19.4937" ry="5.40792" transform="matrix(-1 0 0 1 122.312 169.184)" fill="black"/>
<path d="M79.9287 148.809C74.9973 148.809 71 153.595 71 159.499C71.0002 165.403 74.9974 170.188 79.9287 170.188C84.8602 170.188 88.8582 165.403 88.8584 159.499C88.8584 153.595 84.8603 148.809 79.9287 148.809ZM79.9297 152.328C83.0552 152.328 85.5889 155.538 85.5889 159.497C85.5887 163.456 83.0551 166.665 79.9297 166.665C76.8041 166.665 74.2697 163.456 74.2695 159.497C74.2695 155.538 76.8041 152.328 79.9297 152.328Z" fill="black"/>
<path d="M136.957 174.638C156.381 178.808 161.17 168.314 161.305 155.519C161.309 155.167 161.123 154.839 160.82 154.659L144.721 145.062C144.175 144.736 143.469 144.998 143.254 145.597C141.19 151.355 139.09 153.969 127.673 153.213C117.944 152.568 116.425 158.5 116.302 161.599C116.302 164.5 117.246 170.408 136.957 174.638Z" fill="#FFBFFB"/>
<path d="M161.339 154.95C161.339 168 156.7 178.869 136.989 174.638C117.277 170.408 116.334 164.5 116.334 161.599C116.456 158.5 117.975 152.568 127.704 153.213C139.866 154.019 141.456 151 143.692 144.43" stroke="black" stroke-width="3"/>
<path d="M137.209 64.7277C142.45 69.658 153.107 76.3076 153.796 63.4639C154.659 47.4093 149.347 41.5574 138.815 49.3116C130.389 55.5149 127.567 65.9263 127.209 70.3566" stroke="black" stroke-width="3"/>
<path d="M120.5 117C120.5 126.037 112.742 133.5 103 133.5C93.2576 133.5 85.5 126.037 85.5 117C85.5 107.963 93.2576 100.5 103 100.5C112.742 100.5 120.5 107.963 120.5 117Z" fill="#FFBFFB" stroke="black" stroke-width="3"/>
<path d="M102.935 116.448C102.935 119.908 101.976 122.712 99.5775 122.712C97.1792 122.712 96.2197 119.908 96.2197 116.448C96.2197 112.988 97.1792 110.184 99.5775 110.184C101.976 110.184 102.935 112.988 102.935 116.448Z" fill="black"/>
<path d="M111.677 116.263C111.677 118.72 110.995 120.713 109.292 120.713C107.588 120.713 106.906 118.72 106.906 116.263C106.906 113.805 107.588 111.812 109.292 111.812C110.995 111.812 111.677 113.805 111.677 116.263Z" fill="black"/>
<circle opacity="0.4" cx="65.263" cy="129.263" r="15.263" fill="#E7AAD4"/>
<circle opacity="0.4" cx="140.263" cy="129.263" r="15.263" fill="#E7AAD4"/>
<circle cx="75" cy="105" r="6" fill="black"/>
<circle cx="131" cy="105" r="6" fill="black"/>
<circle cx="75" cy="108" r="2" fill="white"/>
<circle cx="131" cy="108" r="2" fill="white"/>
<path d="M99.7611 39C93.7528 22.7107 105.049 23.4864 105 13.6869C105 8.51573 100.68 6.67994 100.382 2" stroke="black" stroke-width="3" stroke-miterlimit="22.93" stroke-linecap="round"/>
<path d="M106.98 42C100.395 27.4684 106.403 28.6835 109 20" stroke="black" stroke-width="3" stroke-miterlimit="22.93" stroke-linecap="round"/>
<path d="M92.98 42C86.3954 27.4684 92.4029 28.6835 95 20" stroke="black" stroke-width="3" stroke-miterlimit="22.93" stroke-linecap="round"/>
</svg>
