<svg width="24" height="24" viewBox="0 0 24 24" fill="none" xmlns="http://www.w3.org/2000/svg">
<g id="ticket-svgrepo-com 1">
<path id="Vector" fill-rule="evenodd" clip-rule="evenodd" d="M14.0137 16.9998L14.0079 19.0027C14.0065 19.4729 14.0058 19.7079 13.8591 19.8539C13.7124 19.9998 13.4767 19.9998 13.0054 19.9998H9.99502C6.21438 19.9998 4.32407 19.9998 3.14958 18.8282C2.34091 18.0216 2.08903 16.8764 2.01058 15.0103C1.99502 14.6403 1.98724 14.4552 2.05634 14.3318C2.12545 14.2083 2.40133 14.0543 2.95308 13.7461C3.56586 13.4039 3.98007 12.7501 3.98007 11.9998C3.98007 11.2495 3.56586 10.5957 2.95308 10.2535C2.40133 9.9453 2.12545 9.79123 2.05634 9.66778C1.98724 9.54434 1.99502 9.35929 2.01058 8.98922C2.08903 7.12315 2.34091 5.97799 3.14958 5.17133C4.32407 3.99976 6.21439 3.99976 9.99502 3.99976H13.5052C13.7814 3.99976 14.0056 4.22274 14.0064 4.49831L14.0137 6.99976C14.0137 7.55204 14.4625 7.99976 15.0162 7.99976V9.99976C14.4625 9.99976 14.0137 10.4475 14.0137 10.9998V12.9998C14.0137 13.5521 14.4625 13.9998 15.0162 13.9998V15.9998C14.4625 15.9998 14.0137 16.4475 14.0137 16.9998Z" fill="#D874B9"/>
<path id="Vector_2" opacity="0.5" d="M15.0166 16C15.5703 16 16.0191 16.4477 16.0191 17V18.9765C16.0191 19.458 16.0191 19.6988 16.1735 19.8464C16.3279 19.9941 16.5641 19.9841 17.0366 19.9641C18.8995 19.8852 20.0441 19.6332 20.8508 18.8284C21.6595 18.0218 21.9114 16.8766 21.9898 15.0106C22.0054 14.6405 22.0132 14.4554 21.9441 14.332C21.875 14.2085 21.5991 14.0545 21.0473 13.7464C20.4346 13.4042 20.0203 12.7503 20.0203 12C20.0203 11.2497 20.4346 10.5959 21.0473 10.2537C21.5991 9.94561 21.875 9.79155 21.9441 9.6681C22.0132 9.54465 22.0054 9.35961 21.9898 8.98954C21.9114 7.12346 21.6595 5.9783 20.8508 5.17164C19.9731 4.29611 18.6956 4.07488 16.5282 4.01897C16.2486 4.01176 16.0191 4.23725 16.0191 4.51625V7.00007C16.0191 7.55236 15.5703 8.00007 15.0166 8.00007V10.0001C15.5703 10.0001 16.0191 10.4477 16.0191 11V13C16.0191 13.5523 15.5703 14 15.0166 14V16Z" fill="#D874B9"/>
</g>
</svg>
